<?xml version="1.0" encoding="utf-8"?>
<!-- Generator: Adobe Illustrator 24.0.1, SVG Export Plug-In . SVG Version: 6.00 Build 0)  -->
<svg version="1.1" id="Layer_1" xmlns="http://www.w3.org/2000/svg" xmlns:xlink="http://www.w3.org/1999/xlink" x="0px" y="0px"
	 viewBox="0 0 198.43 56.69" style="enable-background:new 0 0 198.43 56.69;" xml:space="preserve">
<style type="text/css">
	.st0{fill:#FFFFFF;}
</style>
<g>
	<g>
		<path class="st0" d="M30.39,25.51l0.24,1.54c-3.12,3.14-6.14,5.54-9.06,7.19c-2.92,1.65-5.58,2.48-7.97,2.48
			c-2.21,0-4-0.64-5.36-1.91S6.2,31.87,6.2,29.81c0-2.32,0.91-4.82,2.73-7.5c1.82-2.67,4.38-5.24,7.67-7.7
			c2.73-2.03,5.25-3.58,7.57-4.66c2.32-1.08,4.3-1.61,5.96-1.61c1.04,0,1.85,0.28,2.43,0.83c0.58,0.55,0.87,1.3,0.87,2.26
			c0,1.32-0.46,2.75-1.39,4.28c-0.92,1.54-2.3,3.17-4.14,4.89c-1.61,1.53-3.22,2.8-4.81,3.8c-1.59,1-2.69,1.5-3.3,1.5
			c-0.48,0-0.95-0.28-1.41-0.83c-0.47-0.55-0.7-1.1-0.7-1.65c0-0.59,0.6-1.43,1.79-2.53s2.75-2.21,4.67-3.34l0.17,0.79
			c1.66-1.28,3.02-2.56,4.08-3.84s1.59-2.22,1.59-2.84c0-0.27-0.06-0.46-0.18-0.58c-0.12-0.12-0.31-0.17-0.57-0.17
			c-0.7,0-1.97,0.55-3.82,1.65c-1.85,1.1-3.76,2.5-5.73,4.2c-2.46,2.1-4.38,4.28-5.77,6.53c-1.39,2.25-2.08,4.27-2.08,6.06
			c0,1.15,0.33,2.04,0.99,2.67c0.66,0.63,1.6,0.95,2.81,0.95c1.86,0,4.04-0.63,6.54-1.89C24.68,29.81,27.41,27.96,30.39,25.51z"/>
		<path class="st0" d="M41.12,28.08l0.04,1.65c-1.76,2.17-3.26,3.72-4.49,4.67s-2.35,1.42-3.37,1.42c-1.04,0-1.85-0.44-2.44-1.31
			c-0.59-0.88-0.88-2.09-0.88-3.66c0-1.37,0.28-2.63,0.85-3.79c0.57-1.16,1.51-2.38,2.83-3.68c0.67-0.67,1.26-1.14,1.76-1.41
			c0.5-0.27,1.03-0.4,1.58-0.4c0.42,0,0.73,0.09,0.94,0.27c0.21,0.18,0.31,0.44,0.31,0.8c0,0.71-0.43,1.65-1.3,2.81
			c-0.87,1.16-2.07,2.4-3.62,3.73c-0.07,0.27-0.13,0.5-0.16,0.7c-0.03,0.2-0.05,0.38-0.05,0.55c0,0.54,0.17,0.97,0.5,1.3
			c0.34,0.33,0.77,0.5,1.31,0.5c0.59,0,1.43-0.36,2.51-1.09C38.56,30.39,39.78,29.38,41.12,28.08z M37.4,19.44
			c0-0.82,0.33-1.59,0.99-2.31c0.66-0.72,1.36-1.08,2.09-1.08c0.38,0,0.67,0.11,0.86,0.32c0.2,0.21,0.29,0.52,0.29,0.93
			c0,0.7-0.33,1.44-0.99,2.23s-1.32,1.18-1.98,1.18c-0.37,0-0.67-0.12-0.91-0.36C37.52,20.11,37.4,19.8,37.4,19.44z"/>
		<path class="st0" d="M49.03,29.88c-1.82,1.9-3.25,3.29-4.29,4.17c-1.04,0.88-1.75,1.32-2.13,1.32c-0.54,0-1.06-0.6-1.57-1.8
			c-0.51-1.2-0.76-2.61-0.76-4.22c0-0.87,0.28-1.71,0.84-2.53c0.56-0.82,1.42-1.64,2.59-2.46c1.26-0.89,2.46-1.59,3.62-2.1
			c1.15-0.51,2.07-0.76,2.77-0.76c0.37,0,0.68,0.07,0.94,0.2c0.26,0.13,0.5,0.35,0.72,0.66c2.02-3.46,3.58-6.01,4.7-7.63
			c1.11-1.63,1.85-2.44,2.22-2.44c0.32,0,0.61,0.17,0.89,0.51c0.28,0.34,0.41,0.74,0.41,1.19c0,0.97-1.63,3.79-4.9,8.46l-0.59,0.81
			c-0.75,1.09-1.39,2.48-1.93,4.18c-0.54,1.7-0.81,3.09-0.81,4.17c0,0.23,0.08,0.44,0.23,0.62s0.33,0.28,0.52,0.28
			c0.53,0,1.93-1,4.2-3.01c0.69-0.61,1.22-1.08,1.61-1.41v1.62l-0.24,0.28c-3.76,4.2-6.29,6.29-7.62,6.29
			c-0.62,0-1.07-0.22-1.33-0.66c-0.26-0.44-0.39-1.21-0.39-2.31c0-0.57,0.02-1.14,0.07-1.71C48.86,31.02,48.93,30.46,49.03,29.88z
			 M50.74,24.72c-2.97,1.09-5.01,2.12-6.12,3.09s-1.66,2.15-1.66,3.53c0,0.22,0.02,0.37,0.06,0.45c0.04,0.08,0.1,0.12,0.2,0.12
			c0.33,0,0.92-0.32,1.76-0.95s2.04-1.65,3.6-3.07c0.05-0.04,0.1-0.08,0.15-0.13C49.69,26.91,50.36,25.9,50.74,24.72z"/>
		<path class="st0" d="M67.88,28.08l0.04,1.65c-1.76,2.17-3.26,3.72-4.49,4.67c-1.23,0.95-2.35,1.42-3.37,1.42
			c-1.04,0-1.85-0.44-2.44-1.31c-0.59-0.88-0.88-2.09-0.88-3.66c0-1.37,0.28-2.63,0.85-3.79c0.57-1.16,1.51-2.38,2.83-3.68
			c0.67-0.67,1.26-1.14,1.76-1.41c0.5-0.27,1.03-0.4,1.58-0.4c0.42,0,0.73,0.09,0.94,0.27c0.21,0.18,0.31,0.44,0.31,0.8
			c0,0.71-0.43,1.65-1.3,2.81c-0.87,1.16-2.07,2.4-3.62,3.73c-0.07,0.27-0.13,0.5-0.16,0.7c-0.03,0.2-0.05,0.38-0.05,0.55
			c0,0.54,0.17,0.97,0.5,1.3c0.34,0.33,0.77,0.5,1.31,0.5c0.59,0,1.43-0.36,2.51-1.09C65.32,30.39,66.53,29.38,67.88,28.08z
			 M64.15,19.44c0-0.82,0.33-1.59,0.99-2.31c0.66-0.72,1.36-1.08,2.09-1.08c0.38,0,0.67,0.11,0.86,0.32
			c0.2,0.21,0.29,0.52,0.29,0.93c0,0.7-0.33,1.44-0.99,2.23s-1.32,1.18-1.98,1.18c-0.37,0-0.67-0.12-0.91-0.36
			C64.27,20.11,64.15,19.8,64.15,19.44z"/>
		<path class="st0" d="M75.79,30.27c-1.65,1.74-3.01,3.03-4.08,3.89c-1.07,0.86-1.88,1.29-2.41,1.29c-0.49,0-1.11-0.63-1.87-1.88
			s-1.14-2.42-1.14-3.5c0-0.78,0.32-1.67,0.97-2.65s1.55-1.95,2.72-2.91c0.87-0.72,1.8-1.36,2.79-1.92c0.99-0.56,2.08-1.06,3.27-1.5
			c0.83-0.32,1.62-0.57,2.38-0.77s1.28-0.29,1.57-0.29c0.4,0,0.8,0.22,1.2,0.67c0.4,0.45,0.6,0.87,0.6,1.26
			c0,0.12-0.05,0.23-0.14,0.32s-0.27,0.21-0.54,0.36l-0.68,0.4l0.64,1.32c0.09,0.16,0.14,0.29,0.17,0.4
			c0.03,0.11,0.05,0.21,0.05,0.31c0,0.28-0.48,1.12-1.44,2.5s-1.44,2.47-1.44,3.24c0,0.29,0.09,0.52,0.28,0.67
			c0.19,0.15,0.46,0.23,0.8,0.23c0.53,0,1.19-0.27,1.98-0.8s1.93-1.49,3.4-2.87l0.04,1.61c-2.58,2.8-4.38,4.6-5.39,5.39
			s-1.87,1.18-2.58,1.18c-0.58,0-1.06-0.21-1.45-0.64c-0.39-0.43-0.59-0.97-0.59-1.61c0-0.59,0.29-1.8,0.88-3.63L75.79,30.27z
			 M78.8,23.75c-4.01,1.73-6.61,3.07-7.8,4.05c-1.19,0.97-1.78,2.05-1.78,3.24c0,0.29,0.06,0.54,0.18,0.73
			c0.12,0.2,0.28,0.29,0.46,0.29c0.61,0,1.79-0.79,3.55-2.38C75.17,28.1,76.96,26.12,78.8,23.75z"/>
		<path class="st0" d="M83.28,29.55c0.94-2.12,1.87-3.72,2.78-4.81c0.91-1.09,1.78-1.63,2.6-1.63c0.49,0,0.92,0.09,1.29,0.26
			c0.37,0.17,0.56,0.36,0.56,0.57c0,0.24-0.27,0.73-0.82,1.46c-0.54,0.73-1.35,1.7-2.43,2.91c-0.31,0.34-0.54,0.71-0.72,1.1
			c-0.17,0.39-0.26,0.76-0.26,1.12v0.11c2.24-2.57,4.37-4.68,6.39-6.32c2.02-1.65,3.4-2.47,4.15-2.47c0.28,0,0.55,0.25,0.81,0.74
			s0.39,1.02,0.39,1.59c0,0.62-0.4,1.37-1.21,2.24c-0.43,0.45-0.75,0.81-0.95,1.08c-0.58,0.77-1.05,1.53-1.43,2.29
			c-0.38,0.75-0.57,1.28-0.57,1.57c0,0.25,0.06,0.44,0.19,0.58c0.13,0.14,0.31,0.21,0.56,0.21c0.31,0,0.88-0.32,1.73-0.96
			c0.84-0.64,2.06-1.7,3.65-3.17l0.04,1.69c-2.67,2.9-4.49,4.72-5.47,5.46c-0.98,0.74-1.84,1.11-2.59,1.11
			c-0.59,0-1.06-0.24-1.43-0.71c-0.37-0.47-0.55-1.09-0.55-1.84c0-0.75,0.27-1.67,0.81-2.78c0.54-1.11,1.37-2.44,2.5-3.99
			c-1.68,1.55-3.34,3.35-4.99,5.38c-1.65,2.03-2.67,3.05-3.05,3.05c-0.59,0-1.07-0.44-1.44-1.33c-0.37-0.89-0.56-2.05-0.56-3.48
			c0-0.2,0-0.37,0.01-0.53C83.25,29.87,83.26,29.71,83.28,29.55z"/>
		<path class="st0" d="M101.77,29.84v0.18c0,0.84,0.22,1.51,0.66,2.01c0.44,0.5,1.03,0.74,1.78,0.74c0.97,0,2.14-0.41,3.52-1.23
			c1.38-0.82,2.84-1.98,4.37-3.47v1.65c-1.97,2.19-3.72,3.78-5.27,4.78c-1.54,1-3.01,1.5-4.4,1.5c-1.37,0-2.42-0.43-3.15-1.3
			c-0.73-0.87-1.09-2.12-1.09-3.74c0-1.2,0.28-2.37,0.84-3.51c0.56-1.14,1.39-2.23,2.5-3.28c1.11-1.05,2.26-1.85,3.44-2.39
			c1.18-0.54,2.36-0.81,3.55-0.81c0.91,0,1.58,0.13,2.02,0.4c0.44,0.27,0.66,0.69,0.66,1.25c0,1.27-0.91,2.63-2.73,4.08
			C106.65,28.16,104.42,29.21,101.77,29.84z M101.92,28.23c1.99-0.91,3.56-1.78,4.69-2.63c1.13-0.85,1.7-1.56,1.7-2.14
			c0-0.15-0.02-0.25-0.06-0.32c-0.04-0.07-0.11-0.1-0.19-0.1c-0.78,0-1.8,0.5-3.06,1.49C103.72,25.51,102.7,26.75,101.92,28.23z"/>
		<path class="st0" d="M125.52,30.74c0.7,0.07,1.34,0.13,1.93,0.17c0.59,0.04,1.13,0.06,1.63,0.06c1.57,0,3.15-0.13,4.74-0.39
			c1.6-0.26,3.13-0.65,4.62-1.15c1.1-0.38,1.87-0.73,2.31-1.04c0.44-0.31,0.66-0.65,0.66-1.02c0-0.54-0.51-1.04-1.54-1.5
			c-1.03-0.46-3.07-1.06-6.13-1.8c-2.79-0.66-4.63-1.28-5.52-1.87c-0.89-0.59-1.34-1.37-1.34-2.35c0-1.33,0.18-2.55,0.55-3.64
			c0.37-1.09,0.88-1.96,1.54-2.6c1.17-1.1,3.13-2.07,5.85-2.91c2.73-0.84,5.45-1.26,8.17-1.26c1.75,0,3.17,0.17,4.27,0.5
			c1.09,0.34,1.64,0.76,1.64,1.26c0,0.91-0.17,1.7-0.5,2.39c-0.34,0.69-0.81,1.21-1.42,1.55c-0.17,0.1-0.69,0.34-1.57,0.73
			c-0.88,0.39-1.64,0.76-2.28,1.11c-0.27,0.15-0.58,0.34-0.92,0.57s-0.58,0.35-0.72,0.35c-0.15,0-0.26-0.04-0.35-0.12
			c-0.09-0.08-0.13-0.19-0.13-0.34c0-0.37,0.78-1.11,2.35-2.24l0.42-0.31c-0.11,0-0.32-0.01-0.62-0.02
			c-0.31-0.01-0.56-0.02-0.77-0.02c-3.02,0-5.76,0.49-8.2,1.46c-2.45,0.97-3.67,1.91-3.67,2.82c0,0.6,1.21,1.24,3.62,1.91
			c1.37,0.38,2.5,0.71,3.38,0.99c2.29,0.73,4.1,1.64,5.44,2.72c1.34,1.08,2.01,2.15,2.01,3.21c0,0.84-0.36,1.88-1.08,3.09
			c-0.72,1.22-1.55,2.11-2.5,2.67c-1.43,0.84-3.34,1.53-5.74,2.06c-2.39,0.53-4.87,0.79-7.42,0.79c-1.97,0-3.59-0.25-4.87-0.75
			c-1.28-0.5-1.92-1.1-1.92-1.8c0-0.22,0.2-0.73,0.6-1.53c0.4-0.8,0.79-1.4,1.17-1.81c0.26-0.28,0.72-0.52,1.39-0.72
			c0.67-0.2,1.45-0.33,2.36-0.39c-0.16,0.26-0.36,0.48-0.59,0.68C126.11,30.43,125.84,30.6,125.52,30.74z"/>
		<path class="st0" d="M149.21,29.84v0.18c0,0.84,0.22,1.51,0.66,2.01c0.44,0.5,1.03,0.74,1.78,0.74c0.97,0,2.14-0.41,3.52-1.23
			c1.38-0.82,2.84-1.98,4.37-3.47v1.65c-1.97,2.19-3.72,3.78-5.27,4.78c-1.54,1-3.01,1.5-4.4,1.5c-1.37,0-2.42-0.43-3.15-1.3
			c-0.73-0.87-1.09-2.12-1.09-3.74c0-1.2,0.28-2.37,0.84-3.51c0.56-1.14,1.39-2.23,2.5-3.28c1.11-1.05,2.26-1.85,3.44-2.39
			c1.18-0.54,2.36-0.81,3.55-0.81c0.91,0,1.58,0.13,2.02,0.4c0.44,0.27,0.66,0.69,0.66,1.25c0,1.27-0.91,2.63-2.73,4.08
			C154.09,28.16,151.85,29.21,149.21,29.84z M149.36,28.23c1.99-0.91,3.56-1.78,4.69-2.63c1.13-0.85,1.7-1.56,1.7-2.14
			c0-0.15-0.02-0.25-0.06-0.32c-0.04-0.07-0.11-0.1-0.19-0.1c-0.78,0-1.8,0.5-3.06,1.49C151.16,25.51,150.14,26.75,149.36,28.23z"/>
		<path class="st0" d="M157.94,29.55c0.94-2.12,1.87-3.72,2.78-4.81c0.91-1.09,1.78-1.63,2.6-1.63c0.49,0,0.92,0.09,1.29,0.26
			c0.37,0.17,0.56,0.36,0.56,0.57c0,0.24-0.27,0.73-0.82,1.46c-0.54,0.73-1.36,1.7-2.43,2.91c-0.31,0.34-0.54,0.71-0.72,1.1
			c-0.17,0.39-0.26,0.76-0.26,1.12v0.11c2.24-2.57,4.37-4.68,6.39-6.32c2.02-1.65,3.4-2.47,4.15-2.47c0.28,0,0.55,0.25,0.81,0.74
			s0.39,1.02,0.39,1.59c0,0.62-0.4,1.37-1.21,2.24c-0.43,0.45-0.75,0.81-0.96,1.08c-0.58,0.77-1.05,1.53-1.43,2.29
			c-0.38,0.75-0.57,1.28-0.57,1.57c0,0.25,0.06,0.44,0.19,0.58c0.13,0.14,0.31,0.21,0.56,0.21c0.31,0,0.88-0.32,1.72-0.96
			c0.84-0.64,2.06-1.7,3.65-3.17l0.04,1.69c-2.67,2.9-4.49,4.72-5.47,5.46c-0.98,0.74-1.84,1.11-2.59,1.11
			c-0.59,0-1.06-0.24-1.43-0.71s-0.55-1.09-0.55-1.84c0-0.75,0.27-1.67,0.81-2.78c0.54-1.11,1.37-2.44,2.5-3.99
			c-1.68,1.55-3.34,3.35-4.99,5.38c-1.65,2.03-2.67,3.05-3.05,3.05c-0.59,0-1.07-0.44-1.44-1.33c-0.37-0.89-0.56-2.05-0.56-3.48
			c0-0.2,0-0.37,0.01-0.53C157.92,29.87,157.93,29.71,157.94,29.55z"/>
		<path class="st0" d="M182.59,30.27c-1.65,1.74-3.01,3.03-4.08,3.89c-1.07,0.86-1.88,1.29-2.41,1.29c-0.49,0-1.11-0.63-1.87-1.88
			c-0.76-1.25-1.14-2.42-1.14-3.5c0-0.78,0.32-1.67,0.97-2.65s1.55-1.95,2.72-2.91c0.87-0.72,1.8-1.36,2.79-1.92
			c0.99-0.56,2.08-1.06,3.27-1.5c0.83-0.32,1.62-0.57,2.38-0.77c0.75-0.2,1.28-0.29,1.57-0.29c0.4,0,0.8,0.22,1.2,0.67
			c0.4,0.45,0.6,0.87,0.6,1.26c0,0.12-0.05,0.23-0.14,0.32s-0.27,0.21-0.54,0.36l-0.68,0.4l0.64,1.32c0.08,0.16,0.14,0.29,0.17,0.4
			c0.03,0.11,0.05,0.21,0.05,0.31c0,0.28-0.48,1.12-1.44,2.5c-0.96,1.39-1.44,2.47-1.44,3.24c0,0.29,0.09,0.52,0.28,0.67
			c0.19,0.15,0.46,0.23,0.8,0.23c0.53,0,1.19-0.27,1.98-0.8c0.8-0.53,1.93-1.49,3.4-2.87l0.04,1.61c-2.58,2.8-4.38,4.6-5.39,5.39
			c-1.01,0.79-1.87,1.18-2.58,1.18c-0.58,0-1.06-0.21-1.45-0.64c-0.39-0.43-0.59-0.97-0.59-1.61c0-0.59,0.29-1.8,0.88-3.63
			L182.59,30.27z M185.6,23.75c-4.01,1.73-6.61,3.07-7.8,4.05s-1.78,2.05-1.78,3.24c0,0.29,0.06,0.54,0.18,0.73
			c0.12,0.2,0.28,0.29,0.46,0.29c0.61,0,1.79-0.79,3.55-2.38C181.97,28.1,183.77,26.12,185.6,23.75z"/>
	</g>
	<g>
		<path class="st0" d="M131.85,49.66c-0.33,0.17-1,0.33-1.85,0.33c-1.97,0-3.46-1.25-3.46-3.54c0-2.19,1.49-3.68,3.66-3.68
			c0.87,0,1.42,0.19,1.66,0.31l-0.22,0.74c-0.34-0.17-0.83-0.29-1.41-0.29c-1.64,0-2.73,1.05-2.73,2.89c0,1.71,0.99,2.82,2.69,2.82
			c0.55,0,1.11-0.11,1.48-0.29L131.85,49.66z"/>
		<path class="st0" d="M135.66,49.89l-0.07-0.63h-0.03c-0.28,0.39-0.82,0.75-1.54,0.75c-1.02,0-1.54-0.72-1.54-1.44
			c0-1.22,1.08-1.88,3.02-1.87v-0.1c0-0.42-0.11-1.16-1.14-1.16c-0.47,0-0.96,0.15-1.31,0.37l-0.21-0.6
			c0.42-0.27,1.02-0.45,1.65-0.45c1.54,0,1.91,1.05,1.91,2.06v1.88c0,0.44,0.02,0.86,0.08,1.21H135.66z M135.52,47.32
			c-1-0.02-2.13,0.16-2.13,1.13c0,0.59,0.39,0.87,0.86,0.87c0.66,0,1.07-0.42,1.22-0.84c0.03-0.09,0.05-0.2,0.05-0.29V47.32z"/>
		<path class="st0" d="M137.83,49.89c0.02-0.34,0.04-0.85,0.04-1.3v-6.08h0.9v3.16h0.02c0.32-0.56,0.9-0.92,1.71-0.92
			c1.25,0,2.13,1.04,2.12,2.57c0,1.8-1.13,2.69-2.25,2.69c-0.73,0-1.31-0.28-1.68-0.95h-0.03l-0.04,0.83H137.83z M138.78,47.87
			c0,0.12,0.02,0.23,0.04,0.33c0.18,0.63,0.71,1.07,1.37,1.07c0.96,0,1.53-0.78,1.53-1.93c0-1.01-0.52-1.87-1.5-1.87
			c-0.62,0-1.21,0.43-1.39,1.12c-0.02,0.1-0.05,0.23-0.05,0.37V47.87z"/>
		<path class="st0" d="M144.29,47.54c0.02,1.24,0.81,1.75,1.73,1.75c0.65,0,1.05-0.11,1.39-0.26l0.16,0.65
			c-0.32,0.15-0.87,0.31-1.67,0.31c-1.55,0-2.47-1.02-2.47-2.54c0-1.52,0.89-2.71,2.36-2.71c1.64,0,2.08,1.44,2.08,2.37
			c0,0.19-0.02,0.33-0.03,0.43H144.29z M146.98,46.88c0.01-0.58-0.24-1.49-1.27-1.49c-0.92,0-1.33,0.85-1.4,1.49H146.98z"/>
		<path class="st0" d="M148.99,42.51h0.91v7.38h-0.91V42.51z"/>
		<path class="st0" d="M155.99,47.33c0,1.86-1.29,2.67-2.5,2.67c-1.36,0-2.41-1-2.41-2.59c0-1.68,1.1-2.67,2.49-2.67
			C155.01,44.74,155.99,45.79,155.99,47.33z M152,47.38c0,1.1,0.63,1.93,1.53,1.93c0.87,0,1.53-0.82,1.53-1.95
			c0-0.85-0.43-1.93-1.51-1.93C152.47,45.43,152,46.43,152,47.38z"/>
		<path class="st0" d="M159.85,47.54c0.02,1.24,0.81,1.75,1.73,1.75c0.65,0,1.05-0.11,1.39-0.26l0.16,0.65
			c-0.32,0.15-0.87,0.31-1.67,0.31c-1.55,0-2.47-1.02-2.47-2.54c0-1.52,0.89-2.71,2.36-2.71c1.64,0,2.08,1.44,2.08,2.37
			c0,0.19-0.02,0.33-0.03,0.43H159.85z M162.53,46.88c0.01-0.58-0.24-1.49-1.27-1.49c-0.92,0-1.33,0.85-1.4,1.49H162.53z"/>
		<path class="st0" d="M171.67,49.66c-0.33,0.17-1,0.33-1.85,0.33c-1.97,0-3.46-1.25-3.46-3.54c0-2.19,1.49-3.68,3.66-3.68
			c0.87,0,1.42,0.19,1.66,0.31l-0.22,0.74c-0.34-0.17-0.83-0.29-1.41-0.29c-1.64,0-2.73,1.05-2.73,2.89c0,1.71,0.99,2.82,2.69,2.82
			c0.55,0,1.11-0.11,1.48-0.29L171.67,49.66z"/>
		<path class="st0" d="M177.21,47.33c0,1.86-1.29,2.67-2.5,2.67c-1.36,0-2.41-1-2.41-2.59c0-1.68,1.1-2.67,2.49-2.67
			C176.23,44.74,177.21,45.79,177.21,47.33z M173.22,47.38c0,1.1,0.63,1.93,1.53,1.93c0.87,0,1.53-0.82,1.53-1.95
			c0-0.85-0.43-1.93-1.51-1.93C173.69,45.43,173.22,46.43,173.22,47.38z"/>
		<path class="st0" d="M178.36,46.43c0-0.59-0.01-1.1-0.04-1.57h0.8l0.03,0.99h0.04c0.23-0.68,0.78-1.1,1.39-1.1
			c0.1,0,0.18,0.01,0.26,0.03v0.86c-0.09-0.02-0.19-0.03-0.31-0.03c-0.64,0-1.1,0.49-1.23,1.17c-0.02,0.13-0.04,0.27-0.04,0.43v2.68
			h-0.9V46.43z"/>
		<path class="st0" d="M181.8,46.5c0-0.64-0.02-1.16-0.04-1.64h0.82l0.04,0.86h0.02c0.37-0.61,0.97-0.98,1.79-0.98
			c1.22,0,2.13,1.03,2.13,2.56c0,1.81-1.1,2.7-2.29,2.7c-0.67,0-1.25-0.29-1.55-0.79h-0.02v2.73h-0.9V46.5z M182.7,47.84
			c0,0.13,0.02,0.26,0.04,0.37c0.17,0.63,0.72,1.07,1.37,1.07c0.97,0,1.53-0.79,1.53-1.94c0-1.01-0.53-1.87-1.5-1.87
			c-0.62,0-1.21,0.45-1.38,1.13c-0.03,0.11-0.06,0.25-0.06,0.37V47.84z"/>
		<path class="st0" d="M192.26,47.33c0,1.86-1.29,2.67-2.5,2.67c-1.36,0-2.41-1-2.41-2.59c0-1.68,1.1-2.67,2.49-2.67
			C191.28,44.74,192.26,45.79,192.26,47.33z M188.27,47.38c0,1.1,0.63,1.93,1.53,1.93c0.87,0,1.53-0.82,1.53-1.95
			c0-0.85-0.43-1.93-1.51-1.93C188.73,45.43,188.27,46.43,188.27,47.38z"/>
	</g>
</g>
</svg>
