<?xml version="1.0" encoding="utf-8"?>
<!-- Generator: Adobe Illustrator 24.0.1, SVG Export Plug-In . SVG Version: 6.00 Build 0)  -->
<svg version="1.1" id="Layer_1" xmlns="http://www.w3.org/2000/svg" xmlns:xlink="http://www.w3.org/1999/xlink" x="0px" y="0px"
	 viewBox="0 0 22.68 22.68" style="enable-background:new 0 0 22.68 22.68;" xml:space="preserve">
<style type="text/css">
	.st0{fill:#FFFFFF;}
</style>
<g>
	<path class="st0" d="M5.72,7.14C6.67,7,7.38,7.41,8.01,8.09c0.78,0.84,1.62,1.63,2.43,2.44c0.6,0.6,1.43,0.6,2.03,0
		c0.92-0.92,1.85-1.84,2.77-2.77c0.41-0.41,0.89-0.62,1.48-0.61c0.34,0.01,0.69-0.01,1.03-0.01c0.05,0,0.12,0.03,0.16,0.07
		c0.72,0.72,1.45,1.42,2.15,2.16c1.07,1.14,1.04,2.88-0.05,3.99c-0.69,0.7-1.38,1.39-2.08,2.08c-0.06,0.06-0.17,0.08-0.25,0.08
		c-0.33,0.01-0.66,0-0.99,0c-0.56,0.01-1.03-0.2-1.42-0.59c-0.91-0.91-1.83-1.82-2.74-2.74c-0.65-0.65-1.48-0.65-2.13-0.01
		c-0.9,0.9-1.8,1.79-2.69,2.69c-0.43,0.44-0.94,0.67-1.57,0.65c-0.4-0.01-0.8,0.01-1.2,0.01c-0.06,0-0.13-0.04-0.18-0.09
		c-0.71-0.71-1.43-1.4-2.12-2.12c-1.08-1.12-1.08-2.87,0-3.99c0.69-0.72,1.41-1.42,2.13-2.12C4.81,7.17,4.92,7.15,5,7.15
		C5.24,7.14,5.48,7.14,5.72,7.14z"/>
	<path class="st0" d="M5.73,6.26C5.8,6.18,5.83,6.14,5.87,6.1C7,4.98,8.13,3.85,9.25,2.72c1.19-1.19,2.97-1.19,4.16-0.01
		c1.15,1.15,2.29,2.29,3.44,3.44c0.03,0.03,0.06,0.07,0.1,0.11c-0.32,0.03-0.63,0.03-0.93,0.09c-0.51,0.11-0.96,0.36-1.33,0.74
		c-0.92,0.92-1.84,1.85-2.77,2.77c-0.34,0.34-0.59,0.34-0.94,0c-0.88-0.88-1.76-1.75-2.63-2.64C7.72,6.56,6.95,6.23,6.03,6.26
		C5.95,6.27,5.87,6.26,5.73,6.26z"/>
	<path class="st0" d="M5.76,16.45c0.36-0.03,0.7-0.04,1.04-0.1c0.57-0.09,1.04-0.38,1.45-0.78c0.92-0.92,1.84-1.83,2.75-2.75
		c0.33-0.33,0.59-0.33,0.92,0c0.89,0.89,1.78,1.77,2.66,2.66c0.61,0.62,1.32,0.95,2.19,0.91c0.05,0,0.11,0,0.2,0
		c-0.04,0.05-0.07,0.08-0.09,0.11c-1.15,1.15-2.3,2.3-3.46,3.46c-0.59,0.59-1.31,0.9-2.14,0.89c-0.74-0.01-1.4-0.27-1.93-0.79
		c-1.2-1.18-2.38-2.37-3.56-3.56C5.78,16.49,5.78,16.47,5.76,16.45z"/>
</g>
</svg>
