<svg id="Layer_1" data-name="Layer 1" xmlns="http://www.w3.org/2000/svg" viewBox="0 0 283.46 28.35"><defs><style>.cls-1{fill:#01a0c6;}.cls-2{fill:#f0047f;}.cls-3{fill:#ffff01;}.cls-4{fill:none;}</style></defs><title>cores</title><circle class="cls-1" cx="16.55" cy="14.17" r="13.71"/><circle class="cls-2" cx="47.85" cy="14.17" r="13.71"/><circle class="cls-3" cx="79.14" cy="14.17" r="13.71"/><circle cx="110.44" cy="14.17" r="13.71"/><circle cx="173.03" cy="14.17" r="13.71"/><circle class="cls-4" cx="204.32" cy="14.17" r="13.71"/><circle class="cls-4" cx="235.62" cy="14.17" r="13.71"/><circle class="cls-4" cx="266.91" cy="14.17" r="13.71"/><circle class="cls-4" cx="141.73" cy="14.17" r="13.71"/><path d="M143.86,21l-1.19-2.36c-.48-.92-.79-1.59-1.16-2.35h0c-.27.76-.6,1.43-1,2.35L139.38,21H136l3.78-6.61-3.64-6.46h3.39l1.15,2.39c.38.79.67,1.43,1,2.17h0c.31-.83.57-1.42.89-2.17l1.11-2.39h3.37l-3.68,6.38L147.27,21Z"/></svg>