<?xml version="1.0" encoding="utf-8"?>
<!-- Generator: Adobe Illustrator 24.0.1, SVG Export Plug-In . SVG Version: 6.00 Build 0)  -->
<svg version="1.1" id="Layer_1" xmlns="http://www.w3.org/2000/svg" xmlns:xlink="http://www.w3.org/1999/xlink" x="0px" y="0px"
	 viewBox="0 0 85.04 70.87" style="enable-background:new 0 0 85.04 70.87;" xml:space="preserve">
<g>
	<g>
		<path d="M10.12,46.62V5.17c0-0.81-0.65-1.46-1.46-1.46H4.47c-0.81,0-1.46,0.65-1.46,1.46v48.55c0,0.81,0.65,1.46,1.46,1.46h0.45
			h5.2h7.42c0.81,0,1.46-0.65,1.46-1.46v-4.18c0-0.81-0.65-1.46-1.46-1.46h-5.96C10.77,48.08,10.12,47.43,10.12,46.62z"/>
		<path d="M33.3,3.72L33.29,3.7l-3.55,0.01v0H19.08v0L15.53,3.7l-0.01,0.01h-2.08c-0.81,0-1.46,0.65-1.46,1.46v2.08v3.53v33.98
			c0,0.81,0.65,1.46,1.46,1.46h4.19c0.81,0,1.46-0.65,1.46-1.46V30.02c0-0.81,0.65-1.46,1.46-1.46h7.74c0.81,0,1.46,0.65,1.46,1.46
			v23.7c0,0.81,0.65,1.46,1.46,1.46h4.19c0.81,0,1.46-0.65,1.46-1.46V10.79V7.26V5.17c0-0.81-0.65-1.46-1.46-1.46H33.3z
			 M28.28,21.46h-7.74c-0.81,0-1.46-0.65-1.46-1.46v-7.76c0-0.81,0.65-1.46,1.46-1.46h7.74c0.81,0,1.46,0.65,1.46,1.46V20
			C29.74,20.81,29.08,21.46,28.28,21.46z"/>
		<path d="M63.48,53.72v-5.63V29.21c0-0.23-0.06-0.46-0.17-0.66c-0.07-0.13-0.15-0.26-0.25-0.36l-2.12-2.15
			c-0.56-0.57-0.56-1.49,0.01-2.05l2.1-2.1c0.12-0.12,0.21-0.26,0.28-0.41c0.09-0.19,0.15-0.41,0.15-0.62V10.79V5.17
			c0-0.8-0.65-1.46-1.45-1.46l0,0h-5.65v0H45.72v0h-5.65c-0.81,0-1.46,0.65-1.46,1.46v48.55c0,0.81,0.65,1.46,1.46,1.46h2.39v0.02
			h15.69v-0.02h3.87c0.06,0,0.12-0.01,0.18-0.01C62.92,55.08,63.48,54.47,63.48,53.72z M56.37,46.64c0,0.81-0.65,1.46-1.46,1.46
			h-7.74c-0.81,0-1.46-0.65-1.46-1.46V30.01c0-0.81,0.65-1.46,1.46-1.46h7.74c0.81,0,1.46,0.65,1.46,1.46V46.64z M56.37,20.02
			c0,0.81-0.65,1.46-1.46,1.46h-7.74c-0.81,0-1.46-0.65-1.46-1.46v-7.75c0-0.81,0.65-1.46,1.46-1.46h7.74
			c0.81,0,1.46,0.65,1.46,1.46V20.02z"/>
		<path d="M65.25,9.33V5.17c0-0.81,0.65-1.46,1.46-1.46h9.2v0h5.65c0.81,0,1.46,0.65,1.46,1.46v48.55c0,0.81-0.65,1.46-1.46,1.46
			h-5.65v-0.01h-0.44h-8.76c-0.81,0-1.46-0.65-1.46-1.46v-4.16c0-0.81,0.65-1.46,1.46-1.46h7.74c0.81,0,1.46-0.65,1.46-1.46V30.01
			c0-0.81-0.65-1.46-1.46-1.46h-5.96c-0.81,0-1.46-0.65-1.46-1.46v-4.16c0-0.81,0.65-1.46,1.46-1.46h5.96
			c0.81,0,1.46-0.65,1.46-1.46v-7.77c0-0.81-0.65-1.46-1.46-1.46h-7.74C65.91,10.79,65.25,10.14,65.25,9.33z"/>
	</g>
	<g>
		<path d="M69.97,59.51L69.97,59.51l-0.55,0v0h-1.64v0l-0.55,0l0,0h-0.32c-0.12,0-0.22,0.1-0.22,0.22v0.32v0.54v6.66
			c0,0.12,0.1,0.22,0.22,0.22h0.64c0.12,0,0.22-0.1,0.22-0.22v-3.68c0-0.12,0.1-0.22,0.22-0.22h1.19c0.12,0,0.22,0.1,0.22,0.22v3.68
			c0,0.12,0.1,0.22,0.22,0.22h0.64c0.12,0,0.22-0.1,0.22-0.22v-6.66v-0.54v-0.32c0-0.12-0.1-0.22-0.22-0.22H69.97z M69.2,62.25
			h-1.19c-0.12,0-0.22-0.1-0.22-0.22v-1.2c0-0.12,0.1-0.22,0.22-0.22h1.19c0.12,0,0.22,0.1,0.22,0.22v1.2
			C69.42,62.15,69.32,62.25,69.2,62.25z"/>
		<path d="M6.79,60.53l-0.99-1c-0.03-0.03-0.06-0.04-0.1-0.04H4.11H3.83H3.15c-0.08,0-0.14,0.06-0.14,0.14v7.71
			c0,0.08,0.06,0.14,0.14,0.14h0.66h0.3H5.7c0.04,0,0.07-0.01,0.1-0.04l0.99-1.01c0.04-0.04,0.06-0.1,0.06-0.16l0-5.62
			c0-0.04-0.02-0.08-0.05-0.11l0,0C6.79,60.54,6.79,60.54,6.79,60.53z M5.61,66.36H4.25c-0.08,0-0.14-0.06-0.14-0.14v-5.49
			c0-0.08,0.06-0.14,0.14-0.14h1.36c0.08,0,0.14,0.06,0.14,0.14v5.49C5.75,66.3,5.69,66.36,5.61,66.36z"/>
		<path d="M31.48,61.42h0.65c0.12,0,0.22-0.1,0.22-0.22v-1.25h-0.01v-0.23c0-0.12-0.1-0.22-0.22-0.22h-2.51h-0.28h-0.6
			c-0.12,0-0.22,0.1-0.22,0.22v7.52c0,0.12,0.1,0.22,0.22,0.22h0.49v0h2.03v0.01h0.88c0.12,0,0.22-0.1,0.22-0.22v-4.78
			c0-0.12-0.1-0.22-0.22-0.22h-0.52c-0.01,0-0.02,0-0.02,0h-0.92c-0.12,0-0.22,0.1-0.22,0.22v0.65c0,0.12,0.1,0.22,0.22,0.22h0.48
			c0.06,0,0.11,0.05,0.11,0.11v2.72c0,0.12-0.1,0.22-0.22,0.22h-1.19c-0.12,0-0.22-0.1-0.22-0.22v-5.36c0-0.12,0.1-0.22,0.22-0.22
			h1.2c0.12,0,0.22,0.1,0.22,0.22v0.37C31.26,61.32,31.36,61.42,31.48,61.42z"/>
		<path d="M18,67.48h-0.8c-0.08,0-0.15-0.07-0.15-0.15v-7.65c0-0.08,0.07-0.15,0.15-0.15H18c0.08,0,0.15,0.07,0.15,0.15v7.65
			C18.15,67.41,18.08,67.48,18,67.48z"/>
		<path d="M43.35,67.48h-0.8c-0.08,0-0.15-0.07-0.15-0.15v-7.65c0-0.08,0.07-0.15,0.15-0.15h0.8c0.08,0,0.15,0.07,0.15,0.15v7.65
			C43.5,67.41,43.43,67.48,43.35,67.48z"/>
		<path d="M80.27,66.18v-6.43c0-0.12-0.1-0.22-0.22-0.22h-0.65c-0.12,0-0.22,0.1-0.22,0.22v7.5c0,0.12,0.1,0.22,0.22,0.22h0.05h0.82
			h2.52c0.12,0,0.22-0.1,0.22-0.22v-0.62c0-0.12-0.1-0.22-0.22-0.22h-2.3C80.37,66.4,80.27,66.3,80.27,66.18z"/>
		<path d="M57.28,59.53h-3.31c-0.12,0-0.22,0.1-0.22,0.22v0.63c0,0.12,0.1,0.22,0.22,0.22h0.83c0.12,0,0.22,0.1,0.22,0.22v6.42
			c0,0.12,0.1,0.22,0.22,0.22h0.65c0.12,0,0.22-0.1,0.22-0.22v-6.42c0-0.12,0.1-0.22,0.22-0.22h0.92c0.12,0,0.22-0.1,0.22-0.22
			v-0.63C57.5,59.63,57.4,59.53,57.28,59.53z"/>
	</g>
</g>
</svg>
